<?xml version="1.0" encoding="utf-8"?>
<!-- Generator: Adobe Illustrator 19.1.0, SVG Export Plug-In . SVG Version: 6.00 Build 0)  -->
<svg version="1.1" id="Layer_1" xmlns="http://www.w3.org/2000/svg" xmlns:xlink="http://www.w3.org/1999/xlink" x="0px" y="0px"
	 viewBox="-367 269 64 64" style="enable-background:new -367 269 64 64;" xml:space="preserve">
<style type="text/css">
	.st0{fill:#F9F7F7;}
</style>
<path class="st0" d="M-343,291h11.1v5.7h0.2c1.5-2.8,5.3-5.7,10.9-5.7c11.7,0,13.8,7.3,13.8,16.7V327h-11.5v-17.1
	c0-4.1-0.1-9.3-6-9.3c-6,0-6.9,4.4-6.9,9V327H-343V291z"/>
<path class="st0" d="M-363,291h12v36h-12V291z"/>
<path class="st0" d="M-351,281c0,3.3-2.7,6-6,6s-6-2.7-6-6s2.7-6,6-6S-351,277.7-351,281z"/>
</svg>
