<?xml version="1.0" encoding="utf-8"?>
<!-- Generator: Adobe Illustrator 19.1.0, SVG Export Plug-In . SVG Version: 6.00 Build 0)  -->
<svg version="1.1" id="Layer_1" xmlns="http://www.w3.org/2000/svg" xmlns:xlink="http://www.w3.org/1999/xlink" x="0px" y="0px"
	 viewBox="-367 269 64 64" style="enable-background:new -367 269 64 64;" xml:space="preserve">
<style type="text/css">
	.st0{fill:#F9F7F7;}
</style>
<path class="st0" d="M-313.6,269h-42.8c-5.8,0-10.6,4.8-10.6,10.6v42.8c0,5.8,4.8,10.6,10.6,10.6h42.8c5.8,0,10.6-4.8,10.6-10.6
	v-42.8C-303,273.8-307.8,269-313.6,269z M-346.5,297h23c0.4,1.3,0.7,2.6,0.7,4c0,6.7-5.5,12.2-12.2,12.2s-12.2-5.5-12.2-12.2
	C-347.2,299.6-347,298.3-346.5,297L-346.5,297z M-311,297v24c0,2.2-1.8,4-4,4h-40c-2.2,0-4-1.8-4-4v-24h6.3c-0.3,1.3-0.4,2.6-0.4,4
	c0,10,8.2,18.2,18.2,18.2c10,0,18.2-8.2,18.2-18.2c0-1.4-0.2-2.7-0.4-4L-311,297L-311,297z M-311,283c0,1.1-0.9,2-2,2h-4
	c-1.1,0-2-0.9-2-2v-4c0-1.1,0.9-2,2-2h4c1.1,0,2,0.9,2,2V283z"/>
</svg>
